<svg width="800" height="800" viewBox="0 0 800 800" fill="none" xmlns="http://www.w3.org/2000/svg">
<g clip-path="url(#clip0_0_1)">
<path d="M540.522 364.563C535.32 361.622 528.717 363.453 525.775 368.655C522.834 373.856 524.666 380.475 529.875 383.416C537.866 387.966 542.742 393.042 545.966 398.287C532.622 402.975 520.794 404.903 510.342 404.903C495.047 404.889 482.536 400.852 471.986 394.666C461.464 388.466 452.955 379.989 446.503 371.194C435.869 356.697 422.033 343.784 405.725 334.364C389.441 324.972 370.602 319.103 350.383 319.103C332.653 319.091 313.969 323.655 295.456 333.822C287.887 337.97 281.327 342.825 275.612 348.123C253.091 356.794 233.684 359.914 217.267 359.914C193.878 359.914 176.406 353.63 164.725 347.456C158.892 344.377 154.53 341.311 151.706 339.092C150.291 337.969 149.259 337.08 148.619 336.498L147.953 335.859L147.848 335.762H147.844C143.695 331.503 136.87 331.394 132.577 335.527C128.277 339.673 128.152 346.527 132.3 350.827C132.903 351.438 140.345 359.053 154.592 366.6C160.828 369.902 168.472 373.147 177.302 375.797C174.956 379.098 171.753 383.925 168.264 390.07C161.556 401.903 153.85 418.509 149.923 438.097C148.752 443.95 152.553 449.653 158.414 450.831C164.275 451.995 169.983 448.194 171.148 442.328C174.442 425.834 181.17 411.172 187.094 400.753C190.048 395.537 192.789 391.389 194.759 388.6C195.744 387.2 196.534 386.131 197.062 385.437C197.325 385.103 197.527 384.841 197.645 384.687L197.77 384.534L197.784 384.52L197.791 384.506C198.789 383.286 199.456 381.912 199.836 380.47C205.344 381.148 211.128 381.566 217.267 381.552C228.648 381.566 241.112 380.22 254.534 377.169C247.881 391.512 245.144 406.481 245.136 420.2C245.162 434.017 247.792 446.558 252.481 456.545C255.039 461.956 261.497 464.258 266.9 461.706C272.303 459.153 274.612 452.689 272.053 447.294V447.28C269.044 441.009 266.753 431.133 266.789 420.2C266.781 408.409 269.327 395.425 275.431 383.578C281.569 371.731 291.1 360.925 305.867 352.795C321.452 344.264 336.33 340.767 350.383 340.755C366.383 340.755 381.456 345.375 394.911 353.114C408.353 360.869 420.097 371.786 429.042 383.992C436.914 394.73 447.445 405.328 460.998 413.319C474.523 421.309 491.13 426.566 510.342 426.552C523.055 426.552 536.866 424.248 551.695 419.198L551.73 419.975C551.73 425.275 550.905 430.102 550.08 433.514C549.67 435.22 549.261 436.567 548.977 437.441C548.831 437.87 548.72 438.189 548.652 438.369L548.589 438.536L548.583 438.562H548.589C546.397 444.098 549.095 450.369 554.63 452.587C560.178 454.808 566.483 452.102 568.703 446.553C568.98 445.777 573.338 434.97 573.378 419.973C573.378 411.372 571.872 401.273 566.872 391.302C561.906 381.334 553.333 371.763 540.522 364.563Z" fill="white"/>
<path d="M564.659 292.275C534.905 292.275 511.009 281.316 494.481 266.972C486.234 259.814 479.894 251.809 475.727 244.153C471.538 236.481 469.616 229.184 469.644 223.719C469.644 217.739 464.795 212.898 458.817 212.898C452.839 212.898 447.995 217.739 447.995 223.719C448.023 233.9 451.206 244.333 456.714 254.487C462.478 265.059 470.898 275.323 481.602 284.367C479.444 287.364 476.467 291.222 472.667 295.355C464.42 304.358 452.533 314.331 438.341 319.367C432.709 321.378 429.775 327.58 431.788 333.197C433.798 338.83 439.994 341.772 445.619 339.758C464.88 332.836 479.298 320.214 489.08 309.475C493.436 304.675 496.827 300.292 499.331 296.783C517.241 307.117 539.359 313.942 564.663 313.928C570.634 313.928 575.491 309.087 575.491 303.108C575.486 297.131 570.631 292.275 564.659 292.275Z" fill="white"/>
<path d="M492.495 503.964C472.244 503.964 456.152 500.052 443.222 494.073C423.87 485.084 411.316 471.269 403.416 457.492C399.477 450.625 396.758 443.787 395.044 437.78C393.323 431.802 392.65 426.558 392.664 423.381C392.664 417.403 387.823 412.559 381.844 412.559C375.858 412.559 371.017 417.402 371.017 423.381C371.017 427.28 371.481 431.594 372.433 436.338C374.083 444.605 377.225 454.164 382.317 464.012C389.955 478.773 402.078 494.253 420.195 506.019C424.731 508.986 429.642 511.678 434.927 514.091C435.752 517.642 436.897 523.967 436.889 531.597C436.889 537.147 436.292 543.333 434.614 549.673C432.936 556.012 430.203 562.478 425.861 568.761C422.456 573.686 423.683 580.427 428.602 583.827C433.52 587.225 440.261 586.005 443.661 581.094C449.57 572.548 453.314 563.67 455.548 555.208C457.789 546.733 458.538 538.673 458.538 531.597C458.538 528.059 458.344 524.786 458.052 521.791C468.484 524.219 479.914 525.633 492.495 525.619C498.469 525.619 503.317 520.764 503.317 514.784C503.317 508.819 498.469 503.964 492.495 503.964Z" fill="white"/>
<path d="M639.534 341.356C634.173 336.738 628.389 332.95 622.284 330.258C616.188 327.567 609.744 325.958 603.147 325.958C597.169 325.958 592.32 330.798 592.32 336.778C592.32 342.772 597.169 347.613 603.147 347.613C607.128 347.598 612.164 348.986 617.456 352.052C625.391 356.602 633.639 364.772 639.638 375.009C645.672 385.233 649.494 397.4 649.488 409.967C649.439 423.798 645.083 438.225 633.292 452.57C629.484 457.189 630.136 464 634.748 467.814C639.355 471.616 646.18 470.964 649.988 466.358C664.844 448.433 671.183 428.555 671.134 409.967C671.134 398.675 668.873 387.87 665.073 378.02C659.356 363.258 650.25 350.622 639.534 341.356Z" fill="white"/>
<path d="M262.614 283.647V283.633C270.05 274.823 280.642 267.916 292.717 263.269C304.772 258.608 318.228 256.277 330.817 256.291C343.08 256.263 354.497 258.523 362.87 262.422C368.302 264.919 374.73 262.561 377.242 257.123C379.745 251.698 377.373 245.277 371.95 242.764C359.855 237.202 345.642 234.648 330.819 234.636C315.602 234.636 299.723 237.383 284.936 243.055C270.184 248.742 256.444 257.428 246.089 269.648C242.225 274.213 242.794 281.05 247.358 284.908C251.919 288.78 258.752 288.197 262.614 283.647Z" fill="white"/>
<path d="M752.55 252.366L752.558 252.38L752.55 252.366Z" fill="white"/>
<path d="M525.248 613.763V613.777H525.241L525.248 613.763Z" fill="white"/>
<path d="M769.086 325.652C767.172 323.709 765.119 321.864 763.039 320.048C764.127 313.986 764.758 307.813 764.758 301.542C764.764 284.923 760.805 268 752.558 252.38C743.131 234.47 729.169 220.264 712.869 210.637C701.467 203.895 688.927 199.402 675.928 197.306C672.773 186.084 667.827 175.402 661.181 165.706C650.119 149.559 634.387 136.187 615.139 127.905C601.372 121.981 586.923 119.137 572.733 119.137C572.733 119.137 572.295 119.123 571.498 119.194C553.478 119.403 535.938 124.133 520.42 132.775C514.352 125.464 507.333 118.958 499.522 113.478C482.403 101.452 461.47 94.3203 439.073 94.0984C438.816 94.0844 438.505 94.0719 438.123 94.0578C438.075 94.0578 438.027 94.0578 437.972 94.0578H437.958H437.944H437.937C437.903 94.0578 437.869 94.0578 437.834 94.0578C437.627 94.0578 437.377 94.0719 437.058 94.0844C417.555 94.2375 399.125 99.6203 383.38 108.941C376.555 112.964 370.327 117.805 364.611 123.187C348.298 113.019 329.022 107.081 308.491 106.984L308.416 106.972H307.93C307.916 106.972 307.908 106.972 307.895 106.972C307.867 106.972 307.839 106.972 307.806 106.972C307.556 106.972 307.244 106.984 306.848 107.012C285.006 107.22 264.523 113.991 247.636 125.477C237.848 132.122 229.283 140.348 222.2 149.766C213.239 147.339 203.883 146.022 194.323 146.022C186.369 146.022 178.302 146.923 170.27 148.755C146.617 154.178 126.414 167.148 111.936 184.475H111.944C101.783 196.612 94.4516 210.928 90.4281 226.369C75.0016 231.6 60.4641 240.367 48.3047 252.753C48.2984 252.767 48.2844 252.781 48.2703 252.795C27.8781 273.589 17.6125 300.792 17.6203 327.802V327.842V327.898C17.6203 327.898 17.6203 327.925 17.6203 327.953V328.244H17.6266C17.6531 337.634 18.9234 346.998 21.4 356.098C7.49844 374.703 0.00781959 397.3 7.08603e-06 420.427C-0.00624291 437.544 4.12188 454.953 12.7 471.003C22.3406 489.023 36.5188 503.297 53.0125 512.966C64.5813 519.748 77.2813 524.231 90.4375 526.339C97.4438 545.164 109.456 561.408 124.827 573.434C143.109 587.766 166.173 596.241 190.886 596.241C193.453 596.241 196.013 596.159 198.57 595.964H198.633H198.667H198.675H198.681C209.591 595.173 220.044 592.719 229.781 588.931C236.253 599.306 244.388 608.475 253.836 616.038C272.113 630.672 295.355 639.413 320.269 639.523C320.359 639.538 320.434 639.537 320.513 639.537C320.597 639.537 320.678 639.537 320.756 639.537H320.77C320.778 639.537 320.778 639.537 320.778 639.537H320.798H320.909C320.945 639.537 320.959 639.537 320.994 639.537L321.264 639.523H321.341C323.331 639.509 325.33 639.427 327.319 639.302H327.347L328.519 639.273C337.437 638.62 346.053 636.886 354.217 634.197C364.503 649.47 378.827 662.356 396.548 670.903H396.541C411.494 678.116 427.447 681.57 443.103 681.57C458.347 681.57 473.259 678.256 486.938 672.123C506.816 693.236 534.845 705.916 564.995 705.945C571.606 705.945 578.292 705.334 584.98 704.072C610.664 699.245 632.672 685.497 648.07 666.728H648.064C658.12 654.508 665.356 640.081 669.227 624.516C686.989 622.769 704.614 616.581 720.192 605.622C735.016 595.217 746.502 581.622 754.2 566.447C761.9 551.284 765.867 534.553 765.867 517.672C765.867 506.422 764.036 495.128 760.436 484.239C769.681 476.708 777.858 467.523 784.378 456.773C794.922 439.433 799.998 420.095 799.998 401.089C799.994 373.303 789.222 346.044 769.086 325.652ZM751.995 437.1C741.113 455.022 723.57 466.177 704.406 469.492C698.511 470.505 694.558 476.109 695.569 481.989C696.581 487.886 702.18 491.839 708.069 490.827C712.473 490.078 716.809 488.981 721.061 487.595C725.692 497.167 727.977 507.433 727.977 517.67C727.983 528.616 725.397 539.491 720.417 549.298C715.43 559.108 708.077 567.831 698.422 574.63C686.264 583.147 672.461 587.213 658.706 587.225C657.631 587.225 656.556 587.142 655.481 587.087C655.253 585.284 655.03 583.495 654.697 581.705V581.691C652.325 569.136 647.442 557.65 640.734 547.677L639.916 546.455L638.806 545.497C630.6 538.478 619.717 526.936 611.317 515.173C607.108 509.305 603.508 503.367 601.088 498.083C598.638 492.797 597.516 488.177 597.556 485.445C597.556 484.225 597.737 483.406 597.939 482.852C598.153 482.311 598.355 481.991 598.778 481.548C603.002 477.331 603.002 470.464 598.778 466.247C594.547 462.017 587.694 462.017 583.469 466.247V466.234C580.834 468.869 578.844 472.045 577.622 475.375C576.402 478.705 575.909 482.131 575.909 485.447C575.95 492.952 578.219 500.053 581.409 507.1C586.245 517.616 593.458 528.061 601.247 537.591C608.578 546.553 616.381 554.584 623.366 560.744C628.172 568.152 631.683 576.503 633.417 585.7C634.145 589.57 634.547 593.412 634.603 597.116L634.609 597.172C634.617 597.672 634.623 598.158 634.623 598.656C634.623 615.027 628.803 630.492 618.795 642.686C608.772 654.867 594.67 663.689 577.977 666.838C573.608 667.658 569.272 668.059 565.006 668.059C542.048 668.073 520.809 656.559 508.048 638.192C514.916 631.228 520.769 623.044 525.248 613.778C530.805 602.292 533.717 590.139 534.252 578.127C534.516 572.133 529.883 567.084 523.917 566.82C517.939 566.558 512.881 571.189 512.617 577.156C512.208 586.353 510.003 595.564 505.752 604.344L505.745 604.372C501.208 613.777 494.855 621.642 487.302 627.872L487.261 627.898C474.853 638.081 459.148 643.686 443.106 643.686C432.994 643.686 422.748 641.466 413.003 636.777C394.955 628.064 382.422 612.667 376.88 594.967L376.872 594.953C374.756 588.237 373.661 581.205 373.661 574.117C373.661 564.005 375.881 553.767 380.589 543.973C383.191 538.591 380.923 532.127 375.539 529.533C370.158 526.939 363.686 529.2 361.092 534.583C354.945 547.317 352.012 560.842 352.012 574.119C352.012 580.555 352.748 586.923 354.08 593.166C345.625 597.784 336.087 600.725 325.78 601.491H325.759C324.081 601.602 322.416 601.656 320.78 601.656C304.528 601.656 289.47 596.023 277.498 586.453C267.08 578.128 259.097 566.852 254.831 553.797C262.453 546.278 268.766 537.484 273.378 527.731C275.93 522.334 273.62 515.87 268.217 513.317C262.814 510.764 256.356 513.067 253.803 518.478C249.517 527.55 243.303 535.597 235.652 542.047C224.817 551.188 211.133 557.084 195.895 558.18H195.873C194.202 558.291 192.538 558.359 190.894 558.359C156.519 558.373 127.18 533.016 122.227 499.03L122.214 498.945L122.2 498.861C121.936 497.253 121.748 495.559 121.623 493.813C121.506 492.119 121.445 490.455 121.445 488.791C121.445 484.406 121.855 480.12 122.63 475.945C123.713 470.063 119.828 464.417 113.947 463.32C108.072 462.237 102.427 466.123 101.338 472.005C100.331 477.442 99.7969 483.061 99.7969 488.791L99.8188 489.414C90.0875 488.331 80.6406 485.239 72.1781 480.273C61.5031 474.016 52.3969 464.875 46.1125 453.139C40.5219 442.68 37.8938 431.498 37.8859 420.442C37.8859 406.181 42.3125 392.172 50.5031 380.464C53.6375 384.903 57.2109 389.12 61.2125 393.045C70.3344 402.008 80.9172 408.653 92.1344 412.98C97.7047 415.145 103.975 412.37 106.131 406.794C108.289 401.217 105.516 394.947 99.9453 392.795C91.3859 389.48 83.3547 384.445 76.3828 377.592L76.3688 377.58C70.2375 371.572 65.4719 364.72 62.0375 357.381C57.6891 348.088 55.5047 338.002 55.5047 327.903C55.5109 310.327 62.0797 292.862 75.3344 279.309C86.6047 267.837 100.791 261.122 115.534 259.111H115.548H115.563L115.603 259.097C118.719 258.681 121.853 258.459 125.002 258.473C142.572 258.487 160.07 265.064 173.617 278.311C177.889 282.486 184.742 282.417 188.925 278.145C193.108 273.873 193.031 267.02 188.759 262.844C171.522 245.961 149.169 237.333 126.778 236.903C129.331 226.541 134.2 216.914 140.997 208.798C150.402 197.562 163.339 189.239 178.742 185.687C183.973 184.494 189.189 183.912 194.32 183.912C203.392 183.912 212.209 185.716 220.358 189.017C218.041 197.077 216.766 205.581 216.766 214.361C216.766 220.339 221.614 225.181 227.592 225.181C233.57 225.181 238.412 220.341 238.412 214.361C238.412 204.886 240.32 195.842 243.727 187.63C248.955 175.089 257.792 164.38 268.911 156.819C280.052 149.259 293.417 144.875 307.912 144.861C328.769 144.875 347.4 154.003 360.169 168.555L360.191 168.569C370.927 180.789 377.398 196.77 377.406 214.359C377.406 220.337 382.247 225.18 388.233 225.18C394.212 225.18 399.053 220.339 399.053 214.359C399.061 194.37 392.595 175.809 381.644 160.784C387.248 153.017 394.392 146.441 402.659 141.558C413.008 135.441 425.022 131.945 437.95 131.945C452.8 131.945 466.464 136.578 477.75 144.5C489.034 152.406 497.872 163.602 502.858 176.655L502.852 176.642C505.794 184.369 507.409 192.678 507.416 201.445C507.416 207.423 512.258 212.267 518.237 212.267C524.216 212.267 529.064 207.425 529.064 201.445C529.064 192.511 527.725 183.883 525.325 175.727C538.142 163.783 555.156 157.027 572.713 157.027C581.881 157.027 591.177 158.858 600.166 162.714C612.7 168.111 622.764 176.697 629.942 187.156C637.114 197.602 641.345 209.906 642.061 222.612C642.13 223.917 642.172 225.234 642.172 226.552C642.164 235.72 640.353 245.003 636.498 253.992C634.139 259.486 636.672 265.852 642.164 268.209C647.658 270.581 654.023 268.03 656.383 262.536C660.398 253.214 662.708 243.545 663.491 233.919C674.103 234.627 684.439 237.844 693.594 243.255C704.045 249.442 712.938 258.458 719.034 270.028V270.041C724.369 280.141 726.866 290.905 726.872 301.545C726.872 306.428 726.309 311.255 725.277 315.986C718.742 313.461 712.034 311.727 705.272 310.77C699.355 309.938 693.884 314.059 693.052 319.995C692.219 325.906 696.339 331.384 702.262 332.217C709.053 333.175 715.747 335.131 722.169 338.155C723.306 340 724.984 341.539 727.128 342.455C728.467 343.023 729.855 343.302 731.228 343.314C735.222 345.978 738.858 348.961 742.103 352.262L741.958 352.111L742.131 352.291C755.094 365.386 762.112 383.073 762.106 401.092C762.108 413.392 758.863 425.809 751.995 437.1Z" fill="white"/>
</g>
<defs>
<clipPath id="clip0_0_1">
<rect width="800" height="800" fill="white"/>
</clipPath>
</defs>
</svg>
